<?xml version="1.0" encoding="UTF-8"?>
<svg xmlns="http://www.w3.org/2000/svg" xmlns:xlink="http://www.w3.org/1999/xlink" width="1440pt" height="1024pt" viewBox="0 0 1440 1024" version="1.1">
<g id="surface1">
<rect x="0" y="0" width="1440" height="1024" style="fill:rgb(100%,100%,100%);fill-opacity:1;stroke:none;"/>
<path style=" stroke:none;fill-rule:nonzero;fill:rgb(40.109253%,27.153015%,61.248779%);fill-opacity:1;" d="M 498.5 601.5 C 596.5 823.101563 674 693.832031 700.5 601.5 C 680.898438 654.699219 658.667969 623.667969 650 601.5 L 498.5 300 L 350 300 C 358.667969 308.167969 400.5 379.898438 498.5 601.5 Z M 498.5 601.5 "/>
<path style=" stroke:none;fill-rule:nonzero;fill:rgb(21.913147%,48.823547%,80.415344%);fill-opacity:1;" d="M 752.792969 476.085938 C 693.5625 327.238281 614.363281 394.125 582.164063 446.171875 C 604.375 416.824219 619.855469 438.929688 624.820313 453.652344 L 722.839844 659.9375 L 846.183594 680.847656 C 839.734375 674.617188 812.019531 624.933594 752.792969 476.085938 Z M 752.792969 476.085938 "/>
<path style=" stroke:none;fill-rule:nonzero;fill:rgb(5.792236%,36.094666%,71.665955%);fill-opacity:1;" d="M 901.785156 601.78125 C 803.664063 823.246094 726.492188 693.871094 700.171875 601.5 C 719.660156 654.726563 741.894531 623.722656 750.574219 601.570313 L 902.203125 300.28125 L 1050.417969 300.488281 C 1041.757813 308.644531 999.90625 380.316406 901.785156 601.78125 Z M 901.785156 601.78125 "/>
</g>
</svg>
